<?xml version="1.0" encoding="UTF-8"?>
<svg width="167px" height="167px" viewBox="0 0 167 167" version="1.1"
    xmlns="http://www.w3.org/2000/svg"
    xmlns:xlink="http://www.w3.org/1999/xlink">
    <title>编组</title>
    <g id="sv" stroke="none" stroke-width="1" fill="none" fill-rule="evenodd">
        <g id="编组" fill="#2f0882" fill-rule="nonzero">
            <path d="M125.065104,0.0651041016 C129.667477,0.0651041016 133.398438,3.79606455 133.398438,8.3984375 L133.398438,41.7317709 L158.398438,41.7317709 C163.00081,41.7317709 166.731771,45.4627312 166.731771,50.0651041 L166.740104,94.6151041 C162.450963,88.483571 156.729783,83.4918419 150.073437,80.0734375 L150.065104,58.3984375 L16.7317709,58.3984375 L16.7317709,125.065104 L33.3984375,125.065104 L33.3984375,116.731771 C33.3984375,112.129398 37.1293979,108.398437 41.7317709,108.398437 L85.1234375,108.398437 L84.5317709,110.756771 L84.2817709,110.923438 C78.9199039,114.523709 74.5175693,119.378006 71.4567709,125.065104 L50.0651041,125.065104 L50.0651041,150.065104 L67.2317709,150.065104 C68.1850815,156.071495 70.5153036,161.775833 74.0401041,166.731771 L41.7317709,166.731771 C37.1293979,166.731771 33.3984375,163.00081 33.3984375,158.398438 L33.3984375,141.731771 L8.3984375,141.731771 C3.79606455,141.731771 0.0651041016,138.00081 0.0651041016,133.398438 L0.0651041016,50.0651041 C0.0651041016,45.4627312 3.79606463,41.7317709 8.3984375,41.7317709 L33.3984375,41.7317709 L33.3984375,8.3984375 C33.3984375,3.79606455 37.1293979,0.0651041016 41.7317709,0.0651041016 L125.065104,0.0651041016 Z M44,70 C47.2000001,70 50,73.0333333 50,76.5 C50,79.9666667 47.2000001,83 44,83 L44,83 L32,83 C28.7999999,83 26,79.9666667 26,76.5 C26,73.0333333 28.7999999,70 32,70 L32,70 Z M116.731771,16.7317709 L50.0651041,16.7317709 L50.0651041,41.7317709 L116.731771,41.7317709 L116.731771,16.7317709 Z" id="形状"></path>
            <g id="sv" transform="translate(122.000000, 135.000000) scale(-1, 1) translate(-122.000000, -135.000000) translate(77.000000, 103.000000)">
                <path d="M44.4344294,17.0776765 C44.262647,23.3204046 41.6571609,31.8685141 36.6008335,42.7220063 C31.3816662,54.0623264 26.9683392,59.7328384 23.3522835,59.7328384 C21.1158131,59.7328384 19.2223208,56.2824305 17.6718066,49.3811791 C14.6567717,30.8823147 13.3721476,20.0435525 10.8786116,20.0437144 C10.5872706,20.0437334 9.58464887,21.0603877 7.86217942,23.0650417 L6.06297331,19.1706195 C10.4849222,12.6842068 14.7098349,5.46758077 17.3576362,5.06650039 C20.3481973,4.5794888 22.1817095,8.0014095 22.8753124,15.303625 C25.3328857,41.2909222 26.4208753,45.2140269 30.8945803,33.4442105 C32.4972308,29.2059316 33.362894,25.9842898 33.4830021,23.7649675 C33.8947337,17.1929063 30.4157508,17.6369951 28.0592068,19.3266908 C29.9450245,9.00317639 33.5528367,3.99158678 38.8740753,4.27760436 C42.7985985,4.44916739 44.6577615,8.7301759 44.4344294,17.0776765 Z" id="路径" transform="translate(25.257684, 31.999431) rotate(-13.000000) translate(-25.257684, -31.999431) "></path>
                <path d="M80.7918171,10.0837165 C82.5123526,12.7620336 83.1899157,16.1009874 82.6709804,19.3440183 C82.5814412,19.8689527 82.4626512,20.3871683 82.3153004,20.8956557 L82.0285833,21.8542344 L81.2664676,21.215162 C79.4977366,19.7683716 77.5211103,18.667232 75.4210689,17.9588053 L74.8483104,17.7736811 L74.8996651,17.1348292 C74.9659619,16.2549449 74.7509442,15.377325 74.2926283,14.6571371 C73.4314226,13.3097323 71.9117822,12.69692 70.4760489,13.118058 C70.1515136,13.2139024 69.8421083,13.3647309 69.5586581,13.5652667 L54.6059998,24.1617575 C53.8675661,24.6817338 53.3581958,25.5224763 53.2014519,26.4800378 C53.0501063,27.460323 53.2564128,28.4673029 53.7745158,29.2771565 C54.6263908,30.635535 56.142993,31.2658377 57.5852211,30.8608928 C57.9089671,30.7624074 58.2180404,30.6116449 58.5026119,30.4133998 L64.2339783,26.3642587 C65.1704839,25.6946387 66.1952245,25.192425 67.2710173,24.8758405 C72.0881257,23.477365 77.1759056,25.5786459 80.0109757,30.137513 C81.7301198,32.8165209 82.4073814,36.1548953 81.8896286,39.3978148 C81.3776542,42.5812492 79.6860567,45.377318 77.2297554,47.1001939 L62.2765851,57.7154578 C61.3375872,58.3797505 60.3135823,58.8814119 59.239546,59.2033071 C54.4199887,60.5974865 49.3320531,58.4948677 46.4942279,53.9362307 C44.7758348,51.2569019 44.1004979,47.9180347 44.6211905,44.6759285 C44.7056125,44.1540178 44.8242345,43.6396951 44.9761039,43.1370908 L45.2574607,42.1785125 L46.0251919,42.8173001 C47.7903892,44.2532696 49.7611002,45.3457278 51.8537463,46.0483431 L52.4265048,46.2331829 L52.3751501,46.8723192 C52.3199303,47.7479375 52.5407689,48.617517 52.9995451,49.3309526 C53.8556953,50.7023609 55.3878109,51.3343269 56.8390933,50.9146866 C57.1630843,50.8174839 57.4721545,50.6666389 57.7559736,50.4671936 L72.680301,39.851932 C73.4216184,39.332238 73.9316705,38.4879947 74.0848494,37.5271097 C74.2391515,36.5488068 74.0325157,35.5425799 73.5117849,34.7365331 C72.6555668,33.3652311 71.1234645,32.7333841 69.6722368,33.1530835 C69.3479083,33.2488052 69.0386802,33.3994394 68.7553566,33.5997231 L63.0239896,37.6556907 C62.0866616,38.3180457 61.0644156,38.8177166 59.9923112,39.1375664 C55.1809263,40.5233413 50.1045296,38.4241279 47.2697096,33.8764614 C45.5564554,31.1946763 44.8853146,27.8565385 45.407903,24.6161583 C45.9197501,21.4326688 47.6112576,18.6364927 50.067521,16.9134948 L65.0375375,6.2982296 C65.9694311,5.63706892 66.9859493,5.13732584 68.0523697,4.8160707 C69.2032992,4.48290676 70.3925944,4.34435798 71.5804184,4.40506523 C75.277791,4.59334854 78.6841771,6.69353085 80.7918171,10.0837165 Z" id="路径" transform="translate(63.645473, 32.010008) scale(-1, 1) rotate(-16.000000) translate(-63.645473, -32.010008) "></path>
            </g>
        </g>
    </g>
</svg>